<svg width="36" height="36" viewBox="0 0 36 36" fill="none" xmlns="http://www.w3.org/2000/svg">
<rect x="0.5" y="0.5" width="35" height="35" rx="7.5" stroke="white" stroke-opacity="0.8"/>
<path d="M19.9192 22.2623L22.5726 24.8239C23.1162 25.3475 23.1162 26.1979 22.5726 26.7221C22.0296 27.2462 21.1495 27.2462 20.607 26.7221L17.9982 24.2049L15.3916 26.7221C15.1198 26.9839 14.7636 27.1149 14.4075 27.1149C14.0519 27.1149 13.6964 26.9839 13.4246 26.7221C12.8816 26.1979 12.8816 25.3481 13.424 24.8239L16.0777 22.2623C15.1115 22.0498 14.1797 21.6803 13.3215 21.1605C12.672 20.7652 12.4768 19.937 12.8861 19.3094C13.2942 18.6811 14.1525 18.4919 14.8031 18.8873C16.7463 20.0672 19.2495 20.0675 21.1938 18.8873C21.8444 18.4919 22.7024 18.6811 23.1114 19.3094C23.5206 19.9364 23.3249 20.7652 22.6754 21.1605C21.8172 21.6808 20.8853 22.0498 19.9192 22.2623Z" fill="white" fill-opacity="0.8"/>
<path fill-rule="evenodd" clip-rule="evenodd" d="M13.2402 13.942C13.2402 16.468 15.3691 18.5227 17.9867 18.5227C20.605 18.5227 22.7333 16.468 22.7333 13.942C22.7333 11.4152 20.605 9.35992 17.9867 9.35992C15.3691 9.35992 13.2402 11.4152 13.2402 13.942ZM19.952 13.9415C19.952 12.8954 19.0704 12.0447 17.9867 12.0447C16.9037 12.0447 16.0213 12.8954 16.0213 13.9415C16.0213 14.9868 16.9037 15.838 17.9867 15.838C19.0704 15.838 19.952 14.9868 19.952 13.9415Z" fill="white" fill-opacity="0.8"/>
</svg>
