<svg width="36" height="36" viewBox="0 0 36 36" fill="none" xmlns="http://www.w3.org/2000/svg">
<rect x="0.5" y="0.5" width="35" height="35" rx="7.5" stroke="white" stroke-opacity="0.8"/>
<path d="M8.6006 17.8588C10.284 16.9316 12.163 16.1577 13.9188 15.3799C16.9393 14.1058 19.9718 12.8539 23.0349 11.6883C23.6309 11.4897 24.7017 11.2955 24.8067 12.1787C24.7492 13.4288 24.5127 14.6717 24.3505 15.9145C23.9387 18.6476 23.4628 21.3714 22.9987 24.0955C22.8388 25.0029 21.7021 25.4726 20.9748 24.892C19.2268 23.7113 17.4655 22.5421 15.7399 21.3341C15.1746 20.7597 15.6988 19.9349 16.2036 19.5247C17.6433 18.106 19.17 16.9006 20.5344 15.4085C20.9025 14.5197 19.815 15.2687 19.4563 15.4982C17.4855 16.8564 15.5628 18.2975 13.4849 19.4911C12.4235 20.0754 11.1864 19.5761 10.1255 19.25C9.17424 18.8562 7.78031 18.4594 8.60051 17.8589L8.6006 17.8588Z" fill="white" fill-opacity="0.8"/>
</svg>
